<?xml version="1.0" standalone="no"?>
<!DOCTYPE svg PUBLIC "-//W3C//DTD SVG 20010904//EN"
 "http://www.w3.org/TR/2001/REC-SVG-20010904/DTD/svg10.dtd">
<svg version="1.0" xmlns="http://www.w3.org/2000/svg"
 width="1112.000000pt" height="201.000000pt" viewBox="0 0 1112.000000 201.000000"
 preserveAspectRatio="xMidYMid meet">
<metadata>
Created by potrace 1.13, written by Peter Selinger 2001-2015
</metadata>
<g transform="translate(0.000000,201.000000) scale(0.100000,-0.100000)"
fill="#3e8cbf" stroke="none">
<path d="M3512 1937 l-34 -10 6 -141 c4 -78 7 -174 9 -213 1 -40 4 -73 7 -73
3 0 5 -59 5 -130 0 -115 -2 -131 -17 -136 -10 -3 -18 -9 -18 -14 0 -5 -7 -7
-15 -4 -8 4 -15 1 -15 -6 0 -6 -4 -9 -8 -6 -9 5 -70 -22 -88 -39 -26 -26 -31
-47 -17 -76 8 -16 18 -27 23 -24 4 3 13 -1 19 -9 7 -8 19 -12 29 -10 9 2 33 5
52 8 19 2 42 5 50 7 10 3 16 -10 22 -51 13 -92 22 -193 21 -227 -1 -18 3 -33
8 -33 5 0 7 -27 5 -60 -2 -33 1 -63 6 -66 4 -3 8 -11 7 -17 -3 -28 15 -57 46
-71 42 -20 79 -20 95 -1 7 8 9 15 5 15 -4 0 -3 6 2 13 16 19 -1 172 -37 339
-4 20 -8 80 -9 135 -2 104 6 123 54 131 11 2 23 9 27 15 4 7 8 8 8 2 0 -6 3
-5 8 1 7 11 150 59 165 56 4 -1 7 2 7 8 0 5 11 10 25 10 14 0 25 4 25 9 0 5
15 12 33 15 49 9 116 76 76 76 -6 0 -9 9 -6 19 3 12 -3 27 -14 37 -18 16 -34
16 -146 2 -7 -1 -13 -6 -13 -11 0 -6 -3 -7 -7 -4 -3 4 -15 0 -25 -10 -10 -9
-18 -13 -18 -8 0 4 -10 1 -23 -8 -12 -8 -37 -18 -55 -21 -17 -4 -32 -11 -32
-16 0 -4 -12 -10 -27 -14 -16 -3 -38 -8 -49 -12 -19 -5 -21 -2 -17 20 3 14 1
26 -4 26 -4 0 -9 35 -10 78 0 42 -3 115 -6 162 -3 47 -7 123 -8 170 -1 47 -6
90 -9 95 -4 6 -10 22 -14 36 -3 15 -14 29 -23 32 -10 2 -25 7 -33 10 -8 3 -30
0 -48 -6z"/>
<path d="M842 1927 c-11 -13 -9 -177 3 -262 3 -22 7 -105 9 -185 4 -136 7
-187 21 -365 15 -184 17 -226 19 -300 1 -44 4 -84 7 -90 4 -5 5 -38 4 -73 -1
-34 1 -65 6 -68 5 -3 7 -9 4 -14 -8 -13 59 -50 92 -50 48 0 64 26 61 103 -1
36 0 69 4 72 3 3 3 22 1 42 -2 20 0 39 5 42 5 3 12 27 15 53 3 26 10 55 15 65
6 10 10 20 10 23 -2 14 17 59 39 93 13 20 21 37 18 37 -3 0 -1 6 5 13 6 6 19
23 30 36 11 13 20 20 20 16 0 -4 9 0 21 11 12 10 23 18 25 17 12 -8 44 -44 42
-47 -2 -2 4 -12 13 -22 9 -11 18 -28 19 -39 6 -37 4 -369 -1 -415 -4 -26 -1
-49 5 -56 13 -12 106 -18 107 -7 0 5 3 19 5 33 9 56 13 448 4 480 -5 19 -11
52 -14 73 -4 21 -13 51 -21 67 -9 17 -15 32 -15 35 0 3 0 8 0 13 0 10 -50 67
-50 56 0 -5 -4 -3 -9 5 -5 7 -20 14 -33 14 -32 0 -98 -22 -98 -32 0 -4 -11
-13 -24 -19 -13 -6 -39 -32 -57 -59 -18 -26 -36 -49 -41 -51 -4 -2 -8 -9 -8
-16 0 -6 -9 -19 -20 -29 -11 -9 -20 -24 -20 -32 0 -8 -7 -15 -15 -15 -10 0
-16 12 -17 38 -3 71 -4 78 -9 87 -3 6 -5 49 -5 98 1 48 -1 87 -4 87 -3 0 -5
76 -5 169 0 93 -2 168 -6 166 -3 -2 -5 34 -6 81 -1 78 -3 86 -27 109 -30 28
-105 35 -124 12z"/>
<path d="M5605 1918 c-6 -22 0 -213 6 -213 3 0 9 -105 14 -250 4 -134 11 -259
19 -380 8 -105 17 -264 19 -320 2 -27 6 -56 11 -63 4 -7 3 -18 -3 -25 -6 -8
-6 -18 -1 -27 6 -8 10 -27 10 -41 0 -63 87 -105 132 -65 20 18 24 31 24 86 1
122 28 290 45 290 5 0 8 3 8 8 -1 4 -1 9 1 12 1 3 4 16 6 30 2 13 8 27 12 30
5 3 14 21 22 39 17 43 69 103 81 95 5 -3 9 -1 9 4 0 16 35 8 57 -13 21 -20 46
-89 35 -99 -3 -3 -1 -6 5 -6 9 0 9 -247 0 -410 l-2 -45 56 0 c46 -1 56 2 51
14 -3 8 -1 12 4 9 19 -12 23 505 4 552 -1 3 -1 13 0 24 1 11 -3 15 -9 12 -7
-5 -11 3 -11 20 0 14 -12 48 -26 74 -22 40 -34 51 -70 63 -42 14 -46 13 -92
-11 -45 -23 -132 -103 -132 -121 0 -4 -11 -21 -25 -37 -14 -16 -25 -35 -25
-41 0 -7 -5 -13 -11 -13 -5 0 -8 -4 -4 -9 3 -5 1 -12 -4 -15 -22 -14 -28 23
-33 211 -2 57 -5 103 -8 103 -3 0 -5 64 -6 142 -2 244 -15 361 -46 391 -7 7
-36 14 -65 16 -48 2 -53 0 -58 -21z"/>
<path d="M9335 1734 c-27 -9 -59 -17 -70 -19 -11 -2 -22 -4 -25 -5 -3 -1 -9
-3 -15 -5 -5 -1 -12 -3 -15 -4 -3 -2 -12 -4 -20 -6 -8 -2 -36 -8 -62 -14 -42
-10 -53 -8 -93 11 l-45 22 -27 -21 c-16 -11 -28 -25 -28 -31 0 -13 -12 -25
-28 -28 -34 -7 -55 -13 -82 -25 -16 -7 -38 -13 -47 -14 -10 -2 -20 -4 -23 -5
-3 -1 -9 -4 -15 -5 -5 -1 -12 -4 -15 -5 -3 -1 -8 -3 -12 -4 -5 -1 -12 -4 -18
-7 -13 -8 -68 -23 -77 -21 -12 3 -41 -46 -44 -73 -1 -14 2 -25 7 -25 5 0 9 -6
9 -13 0 -13 53 -37 84 -37 9 0 31 7 48 16 18 9 48 18 67 20 19 2 38 9 42 16 4
7 11 9 15 5 4 -4 12 -3 18 2 19 14 75 21 82 10 9 -16 17 -77 16 -132 0 -26 4
-45 9 -42 5 4 9 -19 8 -52 0 -62 6 -157 15 -238 4 -27 8 -68 10 -90 2 -22 8
-67 12 -100 4 -33 8 -79 7 -102 0 -24 2 -43 6 -43 4 0 6 -19 6 -43 -2 -56 13
-86 49 -101 26 -11 36 -11 58 1 15 7 32 21 37 31 10 19 9 190 -1 252 -14 82
-21 147 -20 178 1 17 -2 32 -6 32 -5 0 -8 23 -8 50 1 28 -1 50 -5 50 -4 0 -7
19 -7 43 -1 111 -7 217 -14 217 -4 0 -5 8 -4 18 2 9 0 39 -4 65 -6 41 -4 49
12 58 10 5 18 8 18 5 0 -3 16 2 35 10 19 8 37 14 40 14 3 0 6 0 8 1 1 1 13 2
27 4 41 6 82 15 99 24 16 8 78 22 115 26 11 1 22 7 24 14 2 6 9 8 15 4 7 -3 9
-3 5 1 -3 4 0 19 8 34 12 23 11 29 -4 46 -9 11 -11 16 -4 12 6 -4 12 -5 12 -2
0 2 -12 11 -27 18 -39 19 -99 20 -158 2z"/>
<path d="M319 1702 c-32 -9 -79 -34 -79 -42 0 -5 -9 -12 -20 -15 -11 -3 -20
-13 -20 -20 0 -8 -8 -18 -17 -24 -10 -5 -17 -12 -15 -15 1 -4 -5 -18 -14 -31
-14 -22 -44 -113 -59 -180 -2 -11 -11 -49 -20 -85 -8 -36 -12 -71 -10 -78 3
-8 2 -19 -2 -25 -4 -7 -9 -32 -10 -57 -3 -56 -9 -112 -13 -125 -2 -5 -4 -26
-6 -45 -1 -19 -6 -53 -9 -75 -13 -76 -7 -235 8 -235 5 0 5 -4 2 -10 -6 -9 17
-52 41 -77 6 -6 27 -20 47 -31 35 -18 41 -19 109 -5 40 8 80 21 88 28 8 8 19
14 23 14 12 0 106 75 107 85 0 5 10 19 23 32 47 49 57 61 57 72 0 7 5 12 10
12 6 0 10 4 10 9 0 6 11 22 25 37 14 15 25 33 25 40 0 8 5 14 11 14 5 0 7 5 4
10 -3 6 -2 10 4 10 12 0 54 68 54 86 0 8 4 14 9 14 5 0 7 4 4 9 -3 5 1 14 9
21 8 7 12 16 9 21 -3 5 0 9 5 9 6 0 11 11 11 24 0 14 4 27 9 30 17 11 21 67 7
82 -8 7 -16 19 -18 26 -5 13 -88 18 -88 5 0 -5 -4 -6 -9 -2 -13 7 -25 -17 -40
-78 -12 -49 -83 -194 -104 -212 -7 -5 -19 -23 -27 -38 -37 -72 -235 -247 -261
-231 -16 9 -40 104 -33 126 10 28 7 18 23 105 7 40 10 77 6 83 -3 5 -3 10 2
10 4 0 8 15 9 33 1 36 11 122 15 122 1 0 3 14 4 30 2 17 4 30 5 30 2 0 4 11 6
25 6 52 12 96 19 135 4 22 9 49 10 60 8 85 43 143 97 164 20 7 35 5 68 -11 23
-12 44 -27 47 -34 4 -11 48 -26 88 -29 21 -2 56 46 49 68 -7 26 -94 108 -106
101 -4 -3 -8 -1 -8 3 0 5 -12 10 -26 11 -14 1 -31 5 -37 9 -12 7 -87 11 -108
5z"/>
<path d="M2022 1500 c-23 -16 -47 -39 -54 -50 -7 -11 -17 -20 -23 -20 -12 0
-165 -160 -165 -173 0 -5 -6 -15 -14 -23 -21 -21 -29 -2 -32 76 -1 36 -3 67
-4 70 -1 3 -2 9 -1 14 3 15 -30 57 -39 51 -6 -4 -10 -2 -10 3 0 7 -90 6 -98
-2 -5 -6 -4 -117 2 -161 3 -22 8 -67 11 -100 4 -33 10 -96 15 -139 4 -44 7
-90 5 -103 -1 -13 1 -23 4 -23 4 0 8 -35 9 -77 3 -104 9 -212 15 -245 4 -25
33 -63 48 -63 4 0 11 -3 15 -8 12 -12 53 -8 77 8 16 10 24 26 25 50 2 19 -1
35 -5 35 -8 0 -10 39 -15 243 -1 72 2 101 11 107 8 4 11 12 7 18 -3 6 0 17 8
25 8 8 12 17 9 21 -4 3 -1 6 5 6 7 0 12 6 12 13 0 13 45 83 83 130 48 60 187
193 187 180 0 -20 61 63 64 87 3 30 -24 76 -38 63 -3 -3 -6 -2 -6 3 0 6 -15
11 -33 12 -24 2 -46 -6 -75 -28z"/>
<path d="M7632 1500 c-15 -16 -30 -30 -34 -30 -10 0 -188 -177 -188 -187 0 -5
-13 -21 -30 -36 l-29 -28 -5 23 c-2 13 -4 34 -4 48 1 46 -9 116 -18 131 -13
21 -45 34 -79 33 -70 -2 -66 2 -60 -66 4 -35 7 -91 8 -125 1 -35 5 -63 9 -63
4 0 7 -21 7 -47 0 -57 5 -139 29 -403 5 -52 9 -106 9 -120 -1 -38 5 -51 36
-82 32 -32 86 -38 112 -12 14 14 15 31 9 113 -11 170 -7 341 9 341 4 0 7 7 7
15 0 17 58 119 71 123 5 2 9 9 9 15 0 7 11 21 25 31 14 10 25 24 25 29 0 13
160 167 174 167 21 0 66 54 66 79 -1 31 -21 61 -42 61 -8 0 -18 3 -21 7 -4 3
-21 8 -38 10 -24 2 -36 -3 -57 -27z"/>
<path d="M2247 1455 c-15 -11 -17 -92 -4 -125 3 -8 6 -26 5 -40 -1 -14 2 -52
6 -85 14 -113 16 -130 18 -172 1 -24 4 -43 7 -43 3 0 7 -26 9 -58 3 -74 9
-144 17 -207 3 -27 8 -70 9 -95 2 -25 7 -52 10 -60 10 -24 70 -52 102 -48 31
3 55 18 47 30 -2 5 0 8 5 8 12 0 5 63 -12 110 -7 19 -11 47 -10 63 2 15 -1 27
-5 27 -8 0 -9 9 -15 120 -7 128 -16 262 -22 330 -4 36 -6 80 -6 98 0 17 -3 32
-7 32 -5 0 -6 11 -3 25 2 14 -1 32 -8 40 -6 8 -9 18 -6 24 6 9 -22 26 -38 22
-4 -1 -14 3 -21 9 -15 12 -58 10 -78 -5z"/>
<path d="M10876 1447 c-20 -14 -24 -23 -17 -36 5 -9 8 -33 6 -54 -2 -20 -1
-37 3 -37 4 0 7 -10 8 -22 1 -29 13 -162 19 -208 2 -19 7 -57 10 -85 3 -27 8
-66 9 -86 2 -20 5 -41 8 -45 2 -5 4 -35 3 -66 0 -32 2 -58 5 -58 3 0 6 -24 7
-53 4 -141 3 -136 33 -152 15 -8 46 -17 68 -21 35 -5 42 -3 57 19 17 27 15
118 -4 141 -5 6 -8 21 -7 31 2 11 1 25 -2 30 -7 11 -8 18 -16 130 -3 44 -9
114 -13 155 -4 41 -7 99 -7 128 -1 28 -3 52 -7 52 -3 0 -5 29 -5 65 1 36 -1
65 -5 65 -3 0 -6 12 -6 28 0 51 -3 60 -28 76 -37 24 -88 26 -119 3z"/>
<path d="M5307 1403 c-2 -1 -14 -4 -27 -6 -14 -2 -36 -9 -50 -14 -98 -42 -120
-54 -120 -64 0 -7 -3 -10 -6 -6 -4 3 -25 -9 -48 -28 -40 -32 -44 -34 -64 -19
-27 19 -79 27 -87 13 -4 -5 -10 -7 -15 -4 -9 5 -26 -33 -22 -49 2 -4 -2 -13
-7 -20 -5 -6 -9 -40 -8 -74 1 -37 -3 -66 -10 -70 -6 -4 -26 -30 -45 -57 -45
-66 -40 -100 18 -129 23 -12 42 -28 42 -36 0 -8 3 -139 6 -290 3 -151 8 -324
11 -385 3 -60 5 -113 5 -117 0 -10 59 -38 92 -43 19 -4 34 1 48 15 11 11 20
22 20 25 0 3 0 6 1 8 1 3 9 241 13 362 2 61 8 121 14 135 6 14 11 21 11 17 1
-10 136 123 136 133 0 4 17 22 38 40 20 19 37 40 37 47 0 7 5 13 10 13 6 0 10
5 10 10 0 6 10 21 23 34 12 13 30 36 39 52 31 52 43 69 53 76 6 4 6 8 1 8 -5
0 -1 9 9 20 10 11 15 20 12 20 -4 0 1 15 11 33 20 35 41 90 47 122 10 50 12
125 4 125 -5 0 -6 6 -4 13 7 16 -49 77 -69 77 -9 0 -16 3 -16 8 0 6 -108 11
-113 5z m24 -167 c17 -20 16 -81 -1 -126 -1 -3 -2 -8 -1 -12 0 -5 -3 -8 -8 -8
-10 0 -27 -39 -23 -52 1 -5 -3 -8 -9 -8 -5 0 -7 -4 -4 -10 3 -5 2 -10 -4 -10
-6 0 -13 -10 -16 -22 -3 -13 -31 -48 -61 -78 -29 -30 -54 -58 -54 -62 0 -5 -7
-8 -15 -8 -8 0 -14 -4 -12 -9 2 -7 -79 -91 -89 -91 -3 0 -3 -5 -7 170 -3 122
-1 137 17 158 11 12 17 22 13 22 -3 0 5 11 19 25 14 14 29 25 34 25 5 0 14 9
20 20 6 11 15 20 21 20 5 0 22 11 36 24 15 14 30 23 35 20 4 -3 8 0 8 5 0 6 9
11 19 11 11 0 22 4 25 8 9 16 40 9 57 -12z"/>
<path d="M6610 1390 c-19 -5 -36 -13 -38 -19 -2 -6 -10 -11 -17 -11 -8 0 -17
-9 -20 -20 -3 -11 -10 -20 -15 -20 -5 0 -14 -16 -21 -35 -7 -19 -17 -35 -21
-35 -4 0 -8 -9 -8 -19 0 -11 -4 -22 -9 -26 -5 -3 -15 -31 -22 -63 -7 -31 -19
-67 -27 -79 -7 -12 -13 -23 -13 -25 4 -21 -16 -49 -38 -54 -14 -3 -31 -7 -38
-9 -17 -5 -9 -52 13 -76 21 -23 28 -77 12 -96 -15 -18 -7 -134 11 -163 10 -14
11 -21 4 -17 -9 6 -11 3 -7 -7 3 -9 10 -16 14 -16 5 0 11 -9 15 -19 9 -29 89
-63 133 -56 46 7 102 27 102 36 0 4 11 10 25 13 14 4 60 41 104 84 155 153
302 282 321 282 6 0 8 5 5 10 -3 6 -1 10 5 10 16 0 31 48 32 102 0 47 -12 69
-42 77 -34 8 -60 8 -60 0 0 -5 -7 -9 -15 -9 -16 0 -41 -23 -65 -60 -8 -12 -21
-29 -28 -36 -7 -8 -11 -14 -7 -14 4 0 0 -6 -7 -14 -7 -8 -24 -28 -38 -45 -14
-17 -28 -31 -31 -31 -3 0 -29 -21 -56 -47 -27 -27 -80 -75 -118 -108 -37 -33
-79 -70 -94 -83 -24 -22 -26 -22 -38 -6 -7 10 -10 27 -6 38 3 12 7 44 9 71 1
28 3 51 4 53 3 3 7 20 9 36 0 7 20 26 44 42 37 26 92 73 149 127 10 9 20 17
23 17 13 0 85 82 86 98 1 9 3 32 5 50 3 22 -1 34 -11 38 -8 4 -12 10 -9 15 3
5 1 9 -4 9 -5 0 -15 11 -22 25 -7 14 -15 23 -17 21 -3 -2 -20 11 -40 30 -19
19 -39 32 -43 29 -5 -3 -11 -1 -15 5 -7 11 -16 11 -65 0z"/>
<path d="M3038 1357 c-12 -4 -28 -5 -35 -3 -7 3 -13 0 -13 -6 0 -6 -3 -8 -7
-5 -3 4 -11 3 -17 -2 -7 -6 -24 -12 -39 -15 -30 -5 -87 -42 -87 -57 0 -5 -7
-9 -15 -9 -9 0 -27 -12 -40 -26 -14 -15 -25 -24 -25 -20 0 4 -10 -3 -22 -14
-114 -104 -171 -160 -164 -160 4 0 -2 -13 -13 -29 -23 -32 -27 -88 -8 -111 53
-63 257 -85 354 -38 11 6 26 7 32 4 6 -4 11 -2 11 4 0 6 12 8 30 5 17 -3 30
-1 30 3 0 5 6 9 13 9 7 0 13 -7 12 -16 -1 -20 -37 -81 -47 -81 -4 0 -8 -5 -8
-11 0 -7 -15 -26 -32 -44 -90 -89 -122 -148 -99 -183 21 -32 121 -46 121 -17
0 9 7 18 15 21 8 4 13 9 10 13 -2 4 5 14 16 21 10 8 19 18 19 23 0 4 13 22 30
40 16 18 30 37 30 43 0 7 7 14 15 17 8 4 27 25 42 49 15 24 34 49 42 57 7 8
18 27 23 43 6 16 15 25 21 21 6 -4 8 0 4 10 -3 10 -2 17 2 17 8 0 9 27 2 76
-2 21 -75 47 -136 49 -33 1 -64 -1 -69 -4 -6 -2 -19 -6 -30 -7 -12 -1 -32 -5
-46 -8 -14 -3 -36 -8 -50 -11 -14 -3 -38 -8 -55 -11 -16 -3 -35 -7 -42 -8 -7
-1 -15 -5 -19 -8 -5 -6 -55 -1 -61 6 -7 6 53 69 142 151 84 77 147 102 273
109 42 2 56 70 21 102 -18 16 -98 24 -131 11z"/>
<path d="M9928 1360 c-15 -4 -30 -5 -33 -2 -3 4 -10 1 -14 -6 -4 -7 -20 -14
-35 -16 -14 -1 -45 -15 -67 -29 -22 -15 -45 -27 -50 -27 -5 0 -9 -3 -9 -8 0
-4 -22 -22 -50 -40 -27 -18 -50 -37 -50 -42 0 -6 -5 -10 -12 -10 -14 0 -171
-161 -164 -168 3 -2 -1 -13 -8 -24 -10 -14 -11 -28 -4 -58 9 -33 18 -43 52
-59 77 -37 236 -44 306 -14 16 7 52 14 83 16 9 1 17 4 17 8 0 6 8 6 39 0 2 -1
-3 -8 -10 -18 -8 -9 -13 -19 -11 -22 1 -3 -4 -13 -12 -23 -8 -9 -12 -19 -9
-22 4 -3 1 -6 -5 -6 -7 0 -12 -6 -12 -13 0 -6 -16 -27 -35 -44 -19 -18 -35
-35 -35 -38 0 -2 -16 -20 -37 -38 -54 -51 -49 -99 17 -136 24 -13 80 7 89 32
5 12 26 40 47 62 22 21 32 35 24 31 -8 -5 -5 2 8 15 55 57 81 89 98 115 10 16
24 33 31 37 8 5 11 12 8 18 -4 5 -1 9 4 9 6 0 11 7 11 15 0 8 5 15 11 15 5 0
8 4 5 9 -4 5 -1 11 6 13 17 6 16 90 -2 110 -17 19 -77 32 -135 30 -87 -4 -115
-7 -115 -12 0 -4 -6 -7 -12 -7 -7 -1 -26 -4 -43 -6 -16 -3 -50 -8 -75 -12 -25
-4 -50 -11 -57 -17 -6 -5 -23 -6 -38 -2 -20 5 -23 9 -13 15 7 5 9 9 4 9 -5 0
2 11 15 24 13 13 40 42 59 65 19 22 40 41 45 41 6 0 18 8 26 18 30 33 54 47
124 74 56 21 80 26 119 21 34 -4 47 -3 42 5 -3 6 -2 13 4 17 15 10 11 48 -8
72 -19 24 -88 36 -134 23z"/>
<path d="M4269 1331 c-22 -7 -36 -31 -37 -65 -1 -17 -6 -53 -11 -80 -5 -28 -8
-58 -6 -68 2 -10 0 -18 -4 -18 -4 0 -7 -15 -6 -32 2 -18 -1 -37 -5 -43 -4 -5
-7 -23 -6 -40 2 -16 -1 -32 -5 -35 -24 -17 -17 -291 9 -309 4 -4 8 -12 10 -19
2 -11 69 -82 77 -82 2 0 16 -5 32 -11 37 -15 79 -15 131 1 53 17 170 126 197
185 11 22 22 42 25 45 7 6 33 69 37 90 2 8 3 44 3 80 1 83 -7 128 -31 185 -7
17 -12 33 -11 36 1 4 -24 32 -54 63 -60 61 -68 64 -184 53 -14 -1 -25 1 -25 4
0 4 -15 19 -33 35 -31 27 -69 37 -103 25z m254 -216 c15 -9 27 -25 27 -34 0
-10 3 -21 7 -25 8 -8 11 -24 16 -95 5 -68 -32 -147 -107 -226 -63 -67 -111
-75 -123 -20 -1 6 -5 21 -8 35 -22 80 12 272 56 325 59 70 78 76 132 40z"/>
<path d="M10306 1309 c-9 -15 -18 -49 -20 -76 -3 -26 -5 -48 -6 -48 -2 0 -9
-53 -14 -110 -3 -27 -7 -61 -10 -75 -25 -124 -37 -212 -31 -230 3 -10 8 -31
10 -46 11 -69 25 -110 44 -123 12 -7 21 -19 21 -27 0 -7 17 -20 38 -29 20 -9
44 -20 52 -25 21 -10 114 -2 118 10 2 6 7 8 12 5 4 -3 13 2 20 10 7 8 17 15
22 15 10 0 118 105 118 115 0 3 9 15 20 27 10 12 17 25 14 30 -3 4 0 8 5 8 6
0 11 8 11 18 0 10 7 28 16 40 8 12 12 22 8 22 -3 0 -1 6 5 14 22 27 14 186
-13 248 -4 9 -9 23 -10 31 -1 8 -7 21 -14 29 -6 8 -9 18 -5 21 3 4 1 7 -5 7
-7 0 -11 4 -9 8 3 12 -56 72 -70 72 -7 0 -13 5 -13 11 0 5 -4 8 -9 4 -5 -3
-12 -1 -16 5 -6 9 -27 8 -102 -5 -18 -4 -33 -3 -33 2 0 10 -46 65 -54 64 -3
-1 -7 -1 -8 0 -2 0 -19 2 -40 3 -30 1 -39 -3 -52 -25z m267 -183 c44 -20 77
-168 51 -233 -7 -17 -10 -33 -8 -36 3 -2 -2 -10 -11 -17 -8 -7 -15 -18 -15
-24 0 -16 -113 -134 -130 -136 -30 -5 -51 0 -45 10 3 6 2 10 -3 10 -13 0 -24
52 -28 132 -4 96 38 223 92 272 37 34 58 39 97 22z"/>
</g>
</svg>
